<?xml version="1.0" ?><svg xmlns="http://www.w3.org/2000/svg" id="Layer_1" data-name="Layer 1" viewBox="0 0 64 64"><defs><style>
      .cls-1 {
        fill: #39b54a;
      }

      .cls-2 {
        fill: #d9e021;
      }

      .cls-3 {
        fill: #ccc;
      }

      .cls-4 {
        fill: #31a33c;
      }

      .cls-5 {
        fill: #d12431;
      }

      .cls-6 {
        fill: #369940;
      }
    </style></defs><path class="cls-4" d="M43.16,37.7c-1.68-2.83-2.99-5.64-3.73-8.4-5.14,1.39-10.1,1.39-14.86,.02-.81,2.88-2.11,5.66-3.72,8.38,.38,.09,.74,.17,1.12,.25,2.49,.54,5.01,.87,7.54,1h0c.37,.03,.74,.04,1.11,.05,.42,0,.85,.02,1.27,.02,0,0,0,0,.01,0,0,0,0,0,.01,0,0,0,0,0,0,0,3.34,0,6.72-.35,10.14-1.08,.38-.07,.74-.15,1.12-.24Z"/><rect class="cls-3" x="28.96" y="48.09" width="6.09" height="10.91"/><path class="cls-2" d="M32,5l.43,1.31c.19,.57,.72,.96,1.32,.96h1.38l-1.12,.81c-.48,.35-.69,.98-.5,1.55l.43,1.31-1.12-.81c-.48-.35-1.14-.35-1.63,0l-1.12,.81,.43-1.31c.19-.57-.02-1.19-.5-1.55l-1.12-.81h1.38c.6,0,1.13-.39,1.32-.96l.43-1.31Z"/><path class="cls-5" d="M26.29,39.99c-.35,.09-.74-.01-1-.3-.37-.41-.33-1.04,.08-1.41,3.22-2.88,5.4-5.73,6.69-8.7,.22-.51,.81-.74,1.31-.52,.51,.22,.74,.81,.52,1.31-1.4,3.25-3.75,6.32-7.19,9.4-.12,.11-.26,.18-.41,.22Z"/><path class="cls-2" d="M36.02,35c-.55,0-1-.45-1-1s.44-1,.99-1h.01c.55,0,1,.45,1,1s-.45,1-1,1Z"/><path class="cls-2" d="M34.02,37c-.55,0-1-.45-1-1s.44-1,.99-1h.01c.55,0,1,.45,1,1s-.45,1-1,1Z"/><path class="cls-1" d="M40.11,29.12c-.23,.07-.45,.13-.68,.19-.32,.09-.64,.17-.97,.24-1.53,.36-3.04,.6-4.54,.71,0,0,.01,0,0,0-.06,0-.13,.01-.2,.01-.68,.05-1.35,.07-2.02,.07h-.01c-.57-.01-1.14-.03-1.7-.07-.31-.02-.61-.04-.92-.08-.61-.06-1.22-.15-1.82-.26-.27-.04-.54-.1-.81-.15-.63-.14-1.26-.29-1.88-.47-.22-.06-.45-.13-.67-.2,1.7-2.33,3.3-5.06,4.81-8.15,.31-.64,.62-1.3,.92-1.97,.82-1.78,1.61-3.67,2.38-5.65,1.52,3.61,3.08,7.04,4.76,10.18,.45,.84,.91,1.66,1.38,2.46,.63,1.09,1.29,2.13,1.97,3.13Z"/><path class="cls-5" d="M38.14,25.99s-.09,.01-.14,.01c-.1,0-.2-.02-.3-.05-3.11-.98-6.87-2.44-9-4.98,.31-.64,.62-1.3,.92-1.97,.12,.07,.22,.16,.3,.28,1.15,1.64,3.28,2.98,6.84,4.25,.45,.84,.91,1.66,1.38,2.46Z"/><path class="cls-2" d="M30.02,27c-.55,0-1-.45-1-1s.44-1,.99-1h.01c.55,0,1,.45,1,1s-.45,1-1,1Z"/><path class="cls-2" d="M33.02,28c-.55,0-1-.45-1-1s.44-1,.99-1h.01c.55,0,1,.45,1,1s-.45,1-1,1Z"/><path class="cls-6" d="M29.53,39.02s-.02-.04-.03-.06c-.03,0-.06,0-.09,0-.57-.03-1.13-.07-1.7-.12-.85-.08-1.7-.18-2.54-.3h-.01c-1.07-.16-2.14-.35-3.2-.58-.75,3.03-1.81,5.99-3.15,8.88,3.35,.68,6.73,1.1,10.15,1.26,2.02,.09,4.04,.09,6.08,0,1.17-.06,2.34-.15,3.52-.27-4.2-2.68-7.11-5.52-9.03-8.8Z"/><path class="cls-6" d="M42.04,37.94c-3.41,.72-6.79,1.08-10.14,1.08,2.08,3.09,5.26,5.78,9.86,8.4,1.14-.17,2.28-.37,3.43-.59-1.57-3.09-2.65-6.06-3.15-8.89Z"/><path class="cls-5" d="M31.9,39.02c-.43,0-.86,0-1.29-.02-.37-.01-.74-.02-1.11-.04,.01,.02,.02,.04,.03,.06,1.92,3.28,4.83,6.12,9.03,8.8,1.06-.11,2.13-.24,3.2-.4-4.6-2.62-7.78-5.31-9.86-8.4Z"/><path class="cls-2" d="M29.02,44c-.55,0-1-.45-1-1s.44-1,.99-1h.01c.55,0,1,.45,1,1s-.45,1-1,1Z"/><path class="cls-2" d="M31.02,46c-.55,0-1-.45-1-1s.44-1,.99-1h.01c.55,0,1,.45,1,1s-.45,1-1,1Z"/><path d="M35.04,60h-6.09c-.55,0-1-.45-1-1v-10.91c0-.55,.45-1,1-1s1,.45,1,1v9.91h4.09v-9.91c0-.55,.45-1,1-1s1,.45,1,1v10.91c0,.55-.45,1-1,1Z"/><path d="M31.84,31.34c-2.81,0-5.57-.42-8.26-1.27-.31-.1-.55-.34-.65-.64-.1-.31-.05-.64,.14-.9,2.8-3.83,5.42-8.91,7.99-15.53,.15-.38,.51-.63,.92-.64,.45,0,.78,.24,.94,.61,2.89,6.87,5.36,11.68,8.02,15.59,.18,.26,.22,.6,.11,.9-.11,.3-.35,.53-.66,.62-2.89,.84-5.75,1.27-8.55,1.27Zm-6.33-2.8c4.18,1.07,8.54,1.06,13-.03-2.15-3.34-4.21-7.33-6.48-12.54-2.1,5.1-4.25,9.24-6.52,12.57Z"/><path d="M31.99,49.15c-1.03,0-2.06-.02-3.08-.07-3.41-.15-6.87-.58-10.3-1.28-.3-.06-.56-.26-.69-.53-.14-.27-.14-.59-.01-.87,1.32-2.86,2.36-5.79,3.08-8.7,.13-.53,.66-.85,1.18-.74,6.36,1.39,12.98,1.39,19.67-.01,.26-.06,.54,0,.77,.15,.22,.15,.38,.39,.42,.66,.46,2.61,1.48,5.51,3.05,8.61,.14,.28,.14,.61,0,.89s-.4,.48-.71,.54c-3.5,.69-6.96,1.11-10.29,1.28-1.03,.05-2.07,.07-3.1,.07Zm-11.75-3.07c2.92,.54,5.86,.87,8.76,1,1.98,.09,4,.09,6,0,2.82-.14,5.75-.47,8.71-1-1.15-2.45-1.98-4.79-2.46-6.97-6.3,1.19-12.54,1.19-18.57,0-.63,2.33-1.45,4.66-2.45,6.96Z"/><path d="M31.93,40.02c-3.42,0-6.82-.36-10.18-1.09-.38-.08-.76-.17-1.14-.26-.31-.08-.56-.29-.69-.58-.12-.29-.1-.63,.06-.9,1.7-2.86,2.88-5.52,3.62-8.14,.07-.26,.24-.47,.48-.6,.23-.13,.51-.16,.76-.09,4.56,1.32,9.38,1.31,14.32-.02,.26-.07,.53-.03,.76,.1,.23,.13,.4,.35,.47,.61,.67,2.48,1.85,5.15,3.63,8.15,.16,.27,.18,.61,.06,.9-.12,.29-.38,.51-.68,.58-.39,.1-.77,.18-1.17,.25-3.43,.73-6.87,1.09-10.3,1.09Zm-9.54-3c6.31,1.33,12.78,1.33,19.22,0-1.29-2.32-2.24-4.46-2.88-6.5-4.63,1.1-9.15,1.11-13.49,.03-.67,2.11-1.62,4.25-2.86,6.48Z"/><path d="M33.93,11.94c-.21,0-.41-.06-.59-.19l-1.12-.81c-.13-.1-.32-.1-.45,0l-1.12,.81c-.35,.25-.83,.25-1.18,0s-.5-.71-.36-1.12l.43-1.31c.05-.16,0-.33-.14-.43l-1.12-.81c-.35-.25-.5-.71-.36-1.12s.52-.69,.95-.69h1.38c.17,0,.31-.11,.36-.27l.43-1.31c.13-.41,.52-.69,.95-.69s.82,.28,.95,.69l.43,1.31c.05,.16,.2,.27,.36,.27h1.38c.43,0,.82,.28,.95,.69s-.01,.86-.36,1.12l-1.12,.81c-.13,.1-.19,.27-.14,.43l.43,1.31c.13,.41-.01,.86-.36,1.12-.18,.13-.38,.19-.59,.19Zm-2.66-3.89c.15,.27,.24,.56,.28,.86,.3-.06,.61-.06,.9,0,.04-.3,.13-.59,.28-.86-.28-.13-.52-.31-.73-.53-.21,.22-.46,.4-.73,.53Z"/></svg>